<svg  xmlns="http://www.w3.org/2000/svg"  width="24"  height="24"  viewBox="0 0 24 24"  fill="none"  stroke="currentColor"  stroke-width="2"  stroke-linecap="round"  stroke-linejoin="round"  class="icon icon-tabler icons-tabler-outline icon-tabler-device-desktop-off">
    <mask id="a">
        <rect width="24" height="24" fill="black" />
        <path stroke="black" d="M0 0h24v24H0z" fill="none"/>
        <path stroke="white" d="M8 4h12a1 1 0 0 1 1 1v10a1 1 0 0 1 -1 1m-4 0h-12a1 1 0 0 1 -1 -1v-10a1 1 0 0 1 1 -1" />
        <path stroke="white" d="M7 20h10" />
        <path stroke="white" d="M9 16v4" />
        <path stroke="white" d="M15 16v4" />
        <path stroke="white" d="M3 3l18 18" />
    </mask>
    <rect width="24" height="24" fill="currentcolor" mask="url(#a)" />
</svg>